<?xml version="1.0" encoding="UTF-8" standalone="no"?>
<svg
   xmlns:dc="http://purl.org/dc/elements/1.1/"
   xmlns:cc="http://creativecommons.org/ns#"
   xmlns:rdf="http://www.w3.org/1999/02/22-rdf-syntax-ns#"
   xmlns:svg="http://www.w3.org/2000/svg"
   xmlns="http://www.w3.org/2000/svg"
   width="853.09052mm"
   height="203.2mm"
   viewBox="0 0 853.09052 203.2"
   version="1.1"
   id="svg8">
  <defs
     id="defs2" />
  <metadata
     id="metadata5">
    <rdf:RDF>
      <cc:Work
         rdf:about="">
        <dc:format>image/svg+xml</dc:format>
        <dc:type
           rdf:resource="http://purl.org/dc/dcmitype/StillImage" />
        <dc:title></dc:title>
      </cc:Work>
    </rdf:RDF>
  </metadata>
  <g
     id="layer1"
     transform="translate(11.544888,-85.379316)">
    <polygon
       transform="matrix(3.4693134,0,0,3.5441448,-15.263992,-0.24722251)"
       id="polygon3757"
       points="38.543,74.669 38.543,72.329 36.444,72.329 33.739,72.329 23.253,72.329 23.253,79.154 18.61,79.154 18.61,72.329 5.419,72.329 11.613,62.938 8.007,62.938 16.771,49.654 13.023,49.654 20.934,39.089 28.801,49.601 30.171,47.526 20.934,35.184 8.347,51.993 12.423,51.993 3.66,65.28 7.266,65.28 1.072,74.669 16.269,74.669 16.269,81.494 25.593,81.494 25.593,74.669 "
       style="fill:#ffffff;fill-opacity:1;stroke-width:3.62181;stroke-miterlimit:4;stroke-dasharray:none" />
    <polygon
       transform="matrix(3.4693134,0,0,3.5441448,-15.263992,-0.24722251)"
       id="polygon3759"
       points="88.928,74.669 82.734,65.28 86.34,65.28 77.58,51.993 81.656,51.993 69.068,35.184 59.957,47.356 61.326,49.434 69.068,39.089 76.979,49.654 73.229,49.654 81.994,62.938 78.389,62.938 84.58,72.329 71.391,72.329 71.391,79.154 66.748,79.154 66.748,72.329 56.262,72.329 53.557,72.329 51.695,72.329 51.695,74.669 64.408,74.669 64.408,81.494 73.732,81.494 73.732,74.669 "
       style="fill:#ffffff;fill-opacity:1" />
    <polygon
       transform="matrix(3.4693134,0,0,3.5441448,-15.263992,-0.24722251)"
       id="polygon3763"
       points="63.438,56.884 52.805,40.766 57.551,40.766 45.117,24.16 32.688,40.766 37.436,40.766 26.799,56.884 31.179,56.884 23.661,68.273 40.882,68.273 40.882,80.323 49.355,80.323 49.355,68.273 66.576,68.273 59.061,56.884 "
       style="fill:#ffffff;fill-opacity:1" />
    <g
       style="font-style:normal;font-variant:normal;font-weight:bold;font-stretch:normal;font-size:127.415px;line-height:1.25;font-family:Roboto;-inkscape-font-specification:'Roboto, Bold';font-variant-ligatures:normal;font-variant-caps:normal;font-variant-numeric:normal;font-variant-east-asian:normal;text-align:start;letter-spacing:0px;word-spacing:0px;writing-mode:lr-tb;text-anchor:start;fill:#ffffff;fill-opacity:1;stroke:none;stroke-width:0.265447"
       id="text817"
       aria-label="Vernonia">
      <path
         id="path845"
         style="font-style:normal;font-variant:normal;font-weight:bold;font-stretch:normal;font-size:127.415px;font-family:Roboto;-inkscape-font-specification:'Roboto, Bold';font-variant-ligatures:normal;font-variant-caps:normal;font-variant-numeric:normal;font-variant-east-asian:normal;text-align:start;writing-mode:lr-tb;text-anchor:start;fill:#ffffff;fill-opacity:1;stroke-width:0.265447"
         d="m 374.06691,169.62396 20.53074,-68.12472 h 20.77959 l -31.54268,90.5841 h -19.47309 l -31.41825,-90.5841 h 20.71738 z" />
      <path
         id="path847"
         style="font-style:normal;font-variant:normal;font-weight:bold;font-stretch:normal;font-size:127.415px;font-family:Roboto;-inkscape-font-specification:'Roboto, Bold';font-variant-ligatures:normal;font-variant-caps:normal;font-variant-numeric:normal;font-variant-east-asian:normal;text-align:start;writing-mode:lr-tb;text-anchor:start;fill:#ffffff;fill-opacity:1;stroke-width:0.265447"
         d="m 451.02607,193.32763 q -14.80702,0 -24.13917,-9.0833 -9.26994,-9.08329 -9.26994,-24.20138 v -1.742 q 0,-10.14094 3.91951,-18.10438 3.9195,-8.02565 11.07415,-12.31844 7.21687,-4.35501 16.42459,-4.35501 13.81159,0 21.71281,8.71001 7.96344,8.71001 7.96344,24.6991 v 7.3413 h -42.86569 q 0.871,6.59472 5.226,10.57644 4.41722,3.98172 11.13637,3.98172 10.3898,0 16.23795,-7.52794 l 8.83444,9.89208 q -4.04393,5.72372 -10.94973,8.95887 -6.90579,3.17293 -15.30473,3.17293 z M 448.973,138.08128 q -5.35044,0 -8.71001,3.60844 -3.29736,3.60843 -4.23058,10.32758 h 25.01017 v -1.43093 q -0.12443,-5.97258 -3.23514,-9.20773 -3.11072,-3.29736 -8.83444,-3.29736 z" />
      <path
         id="path849"
         style="font-style:normal;font-variant:normal;font-weight:bold;font-stretch:normal;font-size:127.415px;font-family:Roboto;-inkscape-font-specification:'Roboto, Bold';font-variant-ligatures:normal;font-variant-caps:normal;font-variant-numeric:normal;font-variant-east-asian:normal;text-align:start;writing-mode:lr-tb;text-anchor:start;fill:#ffffff;fill-opacity:1;stroke-width:0.265447"
         d="m 526.80317,141.6275 q -3.67065,-0.49771 -6.4703,-0.49771 -10.20315,0 -13.37608,6.90579 v 44.04776 h -17.97995 v -67.31593 h 16.98452 l 0.49771,8.02565 q 5.41265,-9.26994 14.99366,-9.26994 2.98629,0 5.59929,0.80879 z" />
      <path
         id="path851"
         style="font-style:normal;font-variant:normal;font-weight:bold;font-stretch:normal;font-size:127.415px;font-family:Roboto;-inkscape-font-specification:'Roboto, Bold';font-variant-ligatures:normal;font-variant-caps:normal;font-variant-numeric:normal;font-variant-east-asian:normal;text-align:start;writing-mode:lr-tb;text-anchor:start;fill:#ffffff;fill-opacity:1;stroke-width:0.265447"
         d="m 552.06219,124.76741 0.55993,7.77679 q 7.21686,-9.02108 19.34866,-9.02108 10.70087,0 15.92688,6.28365 5.226,6.28365 5.35043,18.78874 v 43.48783 h -17.97995 v -43.05233 q 0,-5.72372 -2.48857,-8.27451 -2.48858,-2.613 -8.27451,-2.613 -7.59015,0 -11.38523,6.47029 v 47.46955 h -17.97995 v -67.31593 z" />
      <path
         id="path853"
         style="font-style:normal;font-variant:normal;font-weight:bold;font-stretch:normal;font-size:127.415px;font-family:Roboto;-inkscape-font-specification:'Roboto, Bold';font-variant-ligatures:normal;font-variant-caps:normal;font-variant-numeric:normal;font-variant-east-asian:normal;text-align:start;writing-mode:lr-tb;text-anchor:start;fill:#ffffff;fill-opacity:1;stroke-width:0.265447"
         d="m 604.1356,157.80323 q 0,-10.01651 3.85729,-17.85552 3.85729,-7.83901 11.07415,-12.1318 7.27908,-4.29279 16.86009,-4.29279 13.62495,0 22.21053,8.33673 8.64779,8.33672 9.64322,22.64602 l 0.12443,4.60386 q 0,15.49138 -8.64779,24.88575 -8.6478,9.33215 -23.20596,9.33215 -14.55816,0 -23.26817,-9.33215 -8.64779,-9.33216 -8.64779,-25.38346 z m 17.97995,1.3065 q 0,9.58102 3.60843,14.68259 3.60843,5.03937 10.32758,5.03937 6.53251,0 10.20316,-4.97715 3.67064,-5.03937 3.67064,-16.05131 0,-9.39436 -3.67064,-14.55816 -3.67065,-5.16379 -10.32759,-5.16379 -6.59472,0 -10.20315,5.16379 -3.60843,5.10158 -3.60843,15.86466 z" />
      <path
         id="path855"
         style="font-style:normal;font-variant:normal;font-weight:bold;font-stretch:normal;font-size:127.415px;font-family:Roboto;-inkscape-font-specification:'Roboto, Bold';font-variant-ligatures:normal;font-variant-caps:normal;font-variant-numeric:normal;font-variant-east-asian:normal;text-align:start;writing-mode:lr-tb;text-anchor:start;fill:#ffffff;fill-opacity:1;stroke-width:0.265447"
         d="m 695.65293,124.76741 0.55993,7.77679 q 7.21687,-9.02108 19.34867,-9.02108 10.70087,0 15.92687,6.28365 5.22601,6.28365 5.35044,18.78874 v 43.48783 h -17.97995 v -43.05233 q 0,-5.72372 -2.48858,-8.27451 -2.48857,-2.613 -8.27451,-2.613 -7.59015,0 -11.38522,6.47029 v 47.46955 h -17.97995 v -67.31593 z" />
      <path
         id="path857"
         style="font-style:normal;font-variant:normal;font-weight:bold;font-stretch:normal;font-size:127.415px;font-family:Roboto;-inkscape-font-specification:'Roboto, Bold';font-variant-ligatures:normal;font-variant-caps:normal;font-variant-numeric:normal;font-variant-east-asian:normal;text-align:start;writing-mode:lr-tb;text-anchor:start;fill:#ffffff;fill-opacity:1;stroke-width:0.265447"
         d="m 769.50138,192.08334 h -18.04216 v -67.31593 h 18.04216 z m -19.09981,-84.73595 q 0,-4.04393 2.67522,-6.65694 2.73743,-2.612998 7.40351,-2.612998 4.60386,0 7.34129,2.612998 2.73743,2.61301 2.73743,6.65694 0,4.10615 -2.79964,6.71915 -2.73743,2.613 -7.27908,2.613 -4.54165,0 -7.34129,-2.613 -2.73744,-2.613 -2.73744,-6.71915 z" />
      <path
         id="path859"
         style="font-style:normal;font-variant:normal;font-weight:bold;font-stretch:normal;font-size:127.415px;font-family:Roboto;-inkscape-font-specification:'Roboto, Bold';font-variant-ligatures:normal;font-variant-caps:normal;font-variant-numeric:normal;font-variant-east-asian:normal;text-align:start;writing-mode:lr-tb;text-anchor:start;fill:#ffffff;fill-opacity:1;stroke-width:0.265447"
         d="m 823.37901,192.08334 q -1.24429,-2.42636 -1.80422,-6.03479 -6.53251,7.27908 -16.98452,7.27908 -9.89208,0 -16.42459,-5.72372 -6.47029,-5.72372 -6.47029,-14.43373 0,-10.70087 7.90122,-16.42459 7.96344,-5.72372 22.9571,-5.78594 h 8.27451 v -3.85729 q 0,-4.66607 -2.42636,-7.46572 -2.36415,-2.79964 -7.52794,-2.79964 -4.54165,0 -7.15465,2.1775 -2.55079,2.1775 -2.55079,5.97258 h -17.97995 q 0,-5.84815 3.60844,-10.8253 3.60843,-4.97715 10.20315,-7.7768 6.59472,-2.86186 14.80702,-2.86186 12.44287,0 19.72195,6.28365 7.34129,6.22144 7.34129,17.54445 v 29.17853 q 0.0622,9.58102 2.67522,14.49595 v 1.05764 z m -14.86923,-12.50508 q 3.98172,0 7.34129,-1.742 3.35958,-1.80422 4.97715,-4.79051 v -11.57187 h -6.71915 q -13.50052,0 -14.37152,9.33215 l -0.0622,1.05765 q 0,3.35957 2.36414,5.53708 2.36415,2.1775 6.4703,2.1775 z" />
    </g>
    <flowRoot
       xml:space="preserve"
       id="flowRoot819"
       style="font-style:normal;font-weight:normal;font-size:40px;line-height:1.25;font-family:sans-serif;letter-spacing:0px;word-spacing:0px;fill:#000000;fill-opacity:1;stroke:none"
       transform="matrix(0.26458333,0,0,0.26458333,-11.544888,85.379316)"><flowRegion
         id="flowRegion821"><rect
           id="rect823"
           width="680"
           height="200"
           x="1320"
           y="488" /></flowRegion><flowPara
         id="flowPara825" /></flowRoot>
    <g
       style="font-style:normal;font-variant:normal;font-weight:bold;font-stretch:normal;font-size:78.2374px;line-height:1.25;font-family:Roboto;-inkscape-font-specification:'Roboto, Bold';font-variant-ligatures:normal;font-variant-caps:normal;font-variant-numeric:normal;font-variant-east-asian:normal;text-align:start;letter-spacing:0px;word-spacing:0px;writing-mode:lr-tb;text-anchor:start;fill:#ffffff;fill-opacity:1;stroke:none;stroke-width:0.271658"
       id="text829"
       aria-label="UTILITY RATES">
      <path
         id="path862"
         style="font-style:normal;font-variant:normal;font-weight:bold;font-stretch:normal;font-size:78.2374px;font-family:Roboto;-inkscape-font-specification:'Roboto, Bold';font-variant-ligatures:normal;font-variant-caps:normal;font-variant-numeric:normal;font-variant-east-asian:normal;text-align:start;writing-mode:lr-tb;text-anchor:start;fill:#ffffff;fill-opacity:1;stroke-width:0.271658"
         d="m 348.9709,219.49337 v 36.63557 q 0,9.13025 -5.73027,14.4403 -5.69208,5.31006 -15.58636,5.31006 -9.74147,0 -15.47175,-5.15725 -5.73028,-5.15725 -5.84489,-14.17289 v -37.05579 h 11.46056 v 36.71198 q 0,5.46286 2.59773,7.98418 2.63592,2.48313 7.25835,2.48313 9.66507,0 9.81788,-10.1617 v -37.01759 z" />
      <path
         id="path864"
         style="font-style:normal;font-variant:normal;font-weight:bold;font-stretch:normal;font-size:78.2374px;font-family:Roboto;-inkscape-font-specification:'Roboto, Bold';font-variant-ligatures:normal;font-variant-caps:normal;font-variant-numeric:normal;font-variant-east-asian:normal;text-align:start;writing-mode:lr-tb;text-anchor:start;fill:#ffffff;fill-opacity:1;stroke-width:0.271658"
         d="m 400.23779,228.77642 h -17.03803 v 46.33884 h -11.46055 v -46.33884 h -16.80882 v -9.28305 h 45.3074 z" />
      <path
         id="path866"
         style="font-style:normal;font-variant:normal;font-weight:bold;font-stretch:normal;font-size:78.2374px;font-family:Roboto;-inkscape-font-specification:'Roboto, Bold';font-variant-ligatures:normal;font-variant-caps:normal;font-variant-numeric:normal;font-variant-east-asian:normal;text-align:start;writing-mode:lr-tb;text-anchor:start;fill:#ffffff;fill-opacity:1;stroke-width:0.271658"
         d="M 418.9949,275.11526 H 407.53435 V 219.49337 H 418.9949 Z" />
      <path
         id="path868"
         style="font-style:normal;font-variant:normal;font-weight:bold;font-stretch:normal;font-size:78.2374px;font-family:Roboto;-inkscape-font-specification:'Roboto, Bold';font-variant-ligatures:normal;font-variant-caps:normal;font-variant-numeric:normal;font-variant-east-asian:normal;text-align:start;writing-mode:lr-tb;text-anchor:start;fill:#ffffff;fill-opacity:1;stroke-width:0.271658"
         d="m 441.03737,265.90862 h 24.33458 v 9.20664 h -35.79514 v -55.62189 h 11.46056 z" />
      <path
         id="path870"
         style="font-style:normal;font-variant:normal;font-weight:bold;font-stretch:normal;font-size:78.2374px;font-family:Roboto;-inkscape-font-specification:'Roboto, Bold';font-variant-ligatures:normal;font-variant-caps:normal;font-variant-numeric:normal;font-variant-east-asian:normal;text-align:start;writing-mode:lr-tb;text-anchor:start;fill:#ffffff;fill-opacity:1;stroke-width:0.271658"
         d="m 484.09085,275.11526 h -11.46056 v -55.62189 h 11.46056 z" />
      <path
         id="path872"
         style="font-style:normal;font-variant:normal;font-weight:bold;font-stretch:normal;font-size:78.2374px;font-family:Roboto;-inkscape-font-specification:'Roboto, Bold';font-variant-ligatures:normal;font-variant-caps:normal;font-variant-numeric:normal;font-variant-east-asian:normal;text-align:start;writing-mode:lr-tb;text-anchor:start;fill:#ffffff;fill-opacity:1;stroke-width:0.271658"
         d="m 535.47234,228.77642 h -17.03802 v 46.33884 h -11.46056 v -46.33884 h -16.80881 v -9.28305 h 45.30739 z" />
      <path
         id="path874"
         style="font-style:normal;font-variant:normal;font-weight:bold;font-stretch:normal;font-size:78.2374px;font-family:Roboto;-inkscape-font-specification:'Roboto, Bold';font-variant-ligatures:normal;font-variant-caps:normal;font-variant-numeric:normal;font-variant-east-asian:normal;text-align:start;writing-mode:lr-tb;text-anchor:start;fill:#ffffff;fill-opacity:1;stroke-width:0.271658"
         d="m 561.83162,244.55378 11.57516,-25.06041 h 12.53021 l -18.26049,35.45132 v 20.17057 h -11.65156 v -20.17057 l -18.26049,-35.45132 h 12.56841 z" />
      <path
         id="path876"
         style="font-style:normal;font-variant:normal;font-weight:bold;font-stretch:normal;font-size:78.2374px;font-family:Roboto;-inkscape-font-specification:'Roboto, Bold';font-variant-ligatures:normal;font-variant-caps:normal;font-variant-numeric:normal;font-variant-east-asian:normal;text-align:start;writing-mode:lr-tb;text-anchor:start;fill:#ffffff;fill-opacity:1;stroke-width:0.271658"
         d="m 631.24439,254.75368 h -9.13025 v 20.36158 h -11.46055 v -55.62189 h 20.6672 q 9.85608,0 15.20434,4.39321 5.34826,4.39321 5.34826,12.4156 0,5.69208 -2.48312,9.51226 -2.44492,3.78199 -7.44936,6.0359 l 12.03358,22.7301 v 0.53482 h -12.301 z m -9.13025,-9.28305 h 9.24485 q 4.31681,0 6.68533,-2.17751 2.36851,-2.21571 2.36851,-6.07409 0,-3.93479 -2.25391,-6.1887 -2.2157,-2.25391 -6.83813,-2.25391 h -9.20665 z" />
      <path
         id="path878"
         style="font-style:normal;font-variant:normal;font-weight:bold;font-stretch:normal;font-size:78.2374px;font-family:Roboto;-inkscape-font-specification:'Roboto, Bold';font-variant-ligatures:normal;font-variant-caps:normal;font-variant-numeric:normal;font-variant-east-asian:normal;text-align:start;writing-mode:lr-tb;text-anchor:start;fill:#ffffff;fill-opacity:1;stroke-width:0.271658"
         d="m 692.02353,263.65471 h -20.09418 l -3.82018,11.46055 h -12.18639 l 20.7054,-55.62189 h 10.62012 l 20.82001,55.62189 h -12.18639 z m -16.99983,-9.28305 h 13.90548 l -6.99094,-20.82001 z" />
      <path
         id="path880"
         style="font-style:normal;font-variant:normal;font-weight:bold;font-stretch:normal;font-size:78.2374px;font-family:Roboto;-inkscape-font-specification:'Roboto, Bold';font-variant-ligatures:normal;font-variant-caps:normal;font-variant-numeric:normal;font-variant-east-asian:normal;text-align:start;writing-mode:lr-tb;text-anchor:start;fill:#ffffff;fill-opacity:1;stroke-width:0.271658"
         d="m 750.62518,228.77642 h -17.03803 v 46.33884 h -11.46056 v -46.33884 h -16.80881 v -9.28305 h 45.3074 z" />
      <path
         id="path882"
         style="font-style:normal;font-variant:normal;font-weight:bold;font-stretch:normal;font-size:78.2374px;font-family:Roboto;-inkscape-font-specification:'Roboto, Bold';font-variant-ligatures:normal;font-variant-caps:normal;font-variant-numeric:normal;font-variant-east-asian:normal;text-align:start;writing-mode:lr-tb;text-anchor:start;fill:#ffffff;fill-opacity:1;stroke-width:0.271658"
         d="m 790.66074,251.0099 h -22.00427 v 14.89872 h 25.82446 v 9.20664 h -37.28501 v -55.62189 h 37.2086 v 9.28305 h -25.74805 v 13.25604 h 22.00427 z" />
      <path
         id="path884"
         style="font-style:normal;font-variant:normal;font-weight:bold;font-stretch:normal;font-size:78.2374px;font-family:Roboto;-inkscape-font-specification:'Roboto, Bold';font-variant-ligatures:normal;font-variant-caps:normal;font-variant-numeric:normal;font-variant-east-asian:normal;text-align:start;writing-mode:lr-tb;text-anchor:start;fill:#ffffff;fill-opacity:1;stroke-width:0.271658"
         d="m 830.04683,260.52216 q 0,-3.24716 -2.29211,-4.96624 -2.29211,-1.75729 -8.2516,-3.66738 -5.95949,-1.9483 -9.43586,-3.82019 -9.47406,-5.11905 -9.47406,-13.79087 0,-4.50782 2.52132,-8.02239 2.55953,-3.55277 7.29656,-5.53926 4.77523,-1.9865 10.69652,-1.9865 5.95949,0 10.62011,2.1775 4.66063,2.13931 7.22015,6.0741 2.59773,3.93479 2.59773,8.93923 h -11.46056 q 0,-3.82018 -2.40671,-5.92128 -2.40672,-2.13931 -6.76173,-2.13931 -4.20221,0 -6.53252,1.79549 -2.33031,1.75728 -2.33031,4.66063 0,2.71233 2.71233,4.54602 2.75053,1.83368 8.06059,3.43816 9.77967,2.94155 14.24929,7.29656 4.46962,4.35501 4.46962,10.84932 0,7.22015 -5.46287,11.34595 -5.46286,4.0876 -14.70771,4.0876 -6.41791,0 -11.68977,-2.33031 -5.27185,-2.36852 -8.06059,-6.45611 -2.75053,-4.0876 -2.75053,-9.47406 h 11.49876 q 0,9.20664 11.00213,9.20664 4.0876,0 6.37971,-1.64268 2.29211,-1.68088 2.29211,-4.66062 z" />
    </g>
  </g>
</svg>
